{"title":"Jackie Chan Adventures (2000) S01E02 The Power Within TVrip Dual","uid":11621128,"size":205809961,"categoryP":"video","categoryS":"tv_shows","magnet":"?xt=urn:btih:603afa7fc352ab8a6428dd5434fc50ade3b869ee&amp;dn=Jackie+Chan+Adventures+%282000%29+S01E02+The+Power+Within+TVrip+Dual&amp;tr=udp%3A%2F%2Ftracker.openbittorrent.com%3A80&amp;tr=udp%3A%2F%2Fopen.demonii.com%3A1337&amp;tr=udp%3A%2F%2Ftracker.coppersurfer.tk%3A6969&amp;tr=udp%3A%2F%2Fexodus.desync.com%3A6969","seeders":0,"leechers":1,"uploader":"Xdesiars","files":4,"time":1417553581,"description":"Format                                   : Matroska\nFormat version                           : Version 2\nFile size                                : 185 MiB\nDuration                                 : 17mn 1s\nOverall bit rate                         : 1 521 Kbps\nMovie name                               : Jackie Chan Adventures (2000) S01E02 by XdesiArsenal [ExD-XMR]\nEncoded date                             : UTC 2014-12-02 15:39:34\nWriting application                      : mkvmerge v5.0.1 ('Es ist Sommer') built on Nov 23 2011 20:48:57\nWriting library                          : libebml v1.2.2 + libmatroska v1.3.0\n\nVideo\nID                                       : 1\nFormat                                   : MPEG-4 Visual\nCodec ID                                 : V_MS/VFW/FOURCC / MP42\nCodec ID/Info                            : Microsoft MPEG-4 v2 (pre-standard)\nCodec ID/Hint                            : Microsoft\nDuration                                 : 17mn 1s\nBit rate                                 : 1 171 Kbps\nWidth                                    : 544 pixels\nHeight                                   : 408 pixels\nDisplay aspect ratio                     : 4:3\nFrame rate mode                          : Constant\nFrame rate                               : 25.000 fps\nCompression mode                         : Lossy\nBits/(Pixel*Frame)                       : 0.211\nStream size                              : 143 MiB (77%)\nTitle                                    : Jackie Chan Adventures (2000) S01E02 by XdesiArsenal [ExD-XMR]\nDefault                                  : No\nForced                                   : No\n\nAudio #1\nID                                       : 2\nFormat                                   : AC-3\nFormat/Info                              : Audio Coding 3\nMode extension                           : CM (complete main)\nFormat settings, Endianness              : Big\nMuxing mode                              : Header stripping\nCodec ID                                 : A_AC3\nDuration                                 : 17mn 1s\nBit rate mode                            : Constant\nBit rate                                 : 160 Kbps\nChannel(s)                               : 2 channels\nChannel positions                        : Front: L R\nSampling rate                            : 48.0 KHz\nBit depth                                : 16 bits\nCompression mode                         : Lossy\nStream size                              : 19.5 MiB (11%)\nTitle                                    : XdesiArsenal\nLanguage                                 : English\nDefault                                  : No\nForced                                   : No\n\nAudio #2\nID                                       : 3\nFormat                                   : AC-3\nFormat/Info                              : Audio Coding 3\nMode extension                           : CM (complete main)\nFormat settings, Endianness              : Big\nMuxing mode                              : Header stripping\nCodec ID                                 : A_AC3\nDuration                                 : 17mn 1s\nBit rate mode                            : Constant\nBit rate                                 : 160 Kbps\nChannel(s)                               : 2 channels\nChannel positions                        : Front: L R\nSampling rate                            : 48.0 KHz\nBit depth                                : 16 bits\nCompression mode                         : Lossy\nDelay relative to video                  : 16ms\nStream size                              : 19.5 MiB (11%)\nTitle                                    : XdesiArsenal\nLanguage                                 : Hindi\nDefault                                  : No\nForced                                   : No","torrent":{"xt":"urn:btih:603afa7fc352ab8a6428dd5434fc50ade3b869ee","amp;dn":"Jackie+Chan+Adventures+%282000%29+S01E02+The+Power+Within+TVrip+Dual","amp;tr":["udp%3A%2F%2Ftracker.openbittorrent.com%3A80","udp%3A%2F%2Fopen.demonii.com%3A1337","udp%3A%2F%2Ftracker.coppersurfer.tk%3A6969","udp%3A%2F%2Fexodus.desync.com%3A6969"],"infoHash":"603afa7fc352ab8a6428dd5434fc50ade3b869ee","infoHashBuffer":{"type":"Buffer","data":[96,58,250,127,195,82,171,138,100,40,221,84,52,252,80,173,227,184,105,238]},"announce":[],"urlList":[]}}